# xmcd CD database file
#
# Track frame offsets:
#	182
#	22677
#	45785
#	72272
#	98647
#	123612
#	150512
#	176642
#	191560
#	216575
#
# Disc length: 3210 seconds
#
# Revision: 0
# Processed by: cddbd v1.5.1PL0 Copyright (c) Steve Scherf et al.
# Submitted via: CDex 1.51
#
DISCID=7d0c880a
DTITLE=Grupo Niche - Exitos
DYEAR=1900
DGENRE=Salsa
TTITLE0=Al pasito
TTITLE1=Cali Pachangero
TTITLE2=Solo un cariño
TTITLE3=Ana Mile
TTITLE4=Listo Medellin
TTITLE5=La negra no quiere
TTITLE6=Si te haz quedado sola
TTITLE7=Las flores tambien se mueren
TTITLE8=Enamorado de ti
TTITLE9=Interes cuanto vales
EXTD=
EXTT0=
EXTT1=
EXTT2=
EXTT3=
EXTT4=
EXTT5=
EXTT6=
EXTT7=
EXTT8=
EXTT9=
PLAYORDER=
